<mxfile host="app.diagrams.net" modified="2023-10-03T08:03:39.068Z" agent="Mozilla/5.0 (Windows NT 10.0; Win64; x64) AppleWebKit/537.36 (KHTML, like Gecko) Chrome/117.0.0.0 Safari/537.36" version="21.8.2" etag="mA1KU7TPb4oOWAzQ32KS" type="github">
  <diagram name="Страница — 1" id="Z_m3o4wePkWwNyeZPK6t">
    <mxGraphModel>
      <root>
        <mxCell id="0" />
        <mxCell id="1" parent="0" />
      </root>
    </mxGraphModel>
  </diagram>
</mxfile>
